<?xml version="1.0" standalone="no"?>
<!DOCTYPE svg PUBLIC "-//W3C//DTD SVG 20010904//EN"
 "http://www.w3.org/TR/2001/REC-SVG-20010904/DTD/svg10.dtd">
<svg version="1.0" xmlns="http://www.w3.org/2000/svg"
 width="275.000000pt" height="183.000000pt" viewBox="0 0 275.000000 183.000000"
 preserveAspectRatio="xMidYMid meet">

<g transform="translate(0.000000,183.000000) scale(0.100000,-0.100000)"
fill="#000000" stroke="none">
<path d="M1624 1075 c-3 -8 -3 -19 1 -25 9 -15 -7 -12 -32 5 -13 9 -24 11 -28
6 -8 -13 27 -31 60 -31 23 0 25 3 19 23 l-7 22 23 -20 c21 -19 23 -19 35 -2
17 23 28 22 20 -3 -5 -16 -2 -20 15 -20 29 0 82 29 75 41 -4 5 -15 3 -28 -6
-28 -19 -48 -19 -41 0 9 22 -24 30 -45 11 -16 -15 -19 -15 -24 -1 -8 19 -36
20 -43 0z"/>
<path d="M980 1002 c-85 -85 -15 -234 96 -207 39 10 39 11 42 63 l3 52 -38 -1
c-31 -2 -33 -3 -10 -6 26 -4 28 -7 25 -46 -3 -40 -5 -42 -37 -45 -62 -6 -101
32 -101 99 0 73 59 119 128 100 17 -5 32 -6 32 -1 0 12 -27 20 -72 20 -30 0
-46 -7 -68 -28z"/>
<path d="M1240 915 c0 -70 4 -115 10 -115 6 0 10 45 10 115 0 70 -4 115 -10
115 -6 0 -10 -45 -10 -115z"/>
<path d="M1380 915 c0 -70 4 -115 10 -115 6 0 10 23 10 50 l0 50 40 0 c22 0
40 5 40 10 0 6 -18 10 -40 10 l-40 0 0 45 0 45 45 0 c25 0 45 5 45 10 0 6 -25
10 -55 10 l-55 0 0 -115z"/>
<path d="M1613 1023 c-24 -2 -43 -9 -43 -14 0 -6 20 -7 50 -3 l50 7 0 -107 c0
-64 4 -106 10 -106 6 0 10 42 10 106 l0 106 50 -7 c34 -5 50 -3 50 4 0 6 -11
11 -24 11 -13 0 -43 2 -67 4 -24 2 -63 2 -86 -1z"/>
<path d="M1562 907 c-2 -75 -1 -78 25 -88 14 -5 31 -8 37 -5 6 2 -3 9 -21 16
-32 11 -32 13 -36 83 l-3 72 -2 -78z"/>
<path d="M1780 910 c0 -68 -1 -71 -27 -81 -16 -6 -23 -13 -17 -16 6 -2 23 1
37 6 26 10 27 14 27 86 0 43 -4 75 -10 75 -6 0 -10 -30 -10 -70z"/>
</g>
</svg>
